# xmcd CD database file
#
# Track frame offsets:
#	150
#	18974
#	33900
#	44177
#	56363
#	75325
#	90296
#	105227
#	125319
#	142881
#
# Disc length: 2074 seconds
#
# Revision: 0
# Processed by: cddbd v1.5.2PL0 Copyright (c) Steve Scherf et al.
# Submitted via: CDex 1.70beta2
#
DISCID=6908180a
DTITLE=Tom Scott with The California Dreamers - Honeysuckle Breeze
DYEAR=1968
DGENRE=Jazz
TTITLE0=Honeysuckle Breeze
TTITLE1=Never My Love
TTITLE2=She's Leaving Home
TTITLE3=Naima
TTITLE4=Mellow Yellow
TTITLE5=Baby I Love You
TTITLE6=Today
TTITLE7=North
TTITLE8=Blues For Hari
TTITLE9=Deliver Me
EXTD=YEAR: 1968
EXTT0=
EXTT1=
EXTT2=
EXTT3=
EXTT4=
EXTT5=
EXTT6=
EXTT7=
EXTT8=
EXTT9=
PLAYORDER=
